<?xml version="1.0" encoding="UTF-8"?>
<svg width="500px" height="500px" viewBox="0 0 500 500" version="1.1" xmlns="http://www.w3.org/2000/svg" xmlns:xlink="http://www.w3.org/1999/xlink">
    <title>Team Logos / NFL / Duotone / WAS@1x</title>
    <g id="Team-Logos-/-NFL-/-Duotone-/-WAS" stroke="none" stroke-width="1" fill="none" fill-rule="evenodd">
        <g id="WAS">
            <circle id="Oval" fill="#5D0024" fill-rule="nonzero" cx="250.276576" cy="250.304953" r="243.66816"></circle>
            <path d="M250.003646,12.0975654 C346.23572,12.0731084 433.004631,70.0263161 469.842353,158.928484 C506.680076,247.830652 486.330311,350.169823 418.283957,418.21618 C350.237603,486.262537 247.898437,506.612302 158.996272,469.774578 C70.0941079,432.936854 12.1409026,346.167939 12.1653596,249.935862 C12.1987576,118.595235 118.663025,12.1309634 250.003646,12.0975654 M250.003646,0 C148.884062,0 57.7225002,60.9162049 19.0313637,154.340865 C-19.6597728,247.765524 1.73994161,355.298156 73.2509362,426.791851 C144.761931,498.285546 252.299733,519.659239 345.715023,480.945495 C439.130314,442.231751 500.024452,351.055447 500,249.935862 C499.833274,111.945598 387.99394,0.13332 250.003646,0 Z" id="Shape" fill="#FFFFFF" fill-rule="nonzero"></path>
            <polygon id="Path" fill="#FFC20E" fill-rule="nonzero" points="45.9610028 317.585763 77.255576 305.013928 89.1364903 333.646434 83.0123076 336.112679 74.1934847 315.059366 67.7018511 317.706068 76.3369486 338.759381 70.212766 341.225627 61.5776685 320.232466 49.1455777 325.164956"></polygon>
            <path d="M71.6978341,369.455067 C64.5087855,358.434097 65.221749,351.45415 74.4902745,344.964023 L76.5697513,343.49456 C85.8382768,337.065661 92.4926028,339.024945 99.6222377,349.984687 L101.048165,352.127653 C108.1778,363.148623 107.464836,370.128571 98.2557244,376.618698 L96.1168339,378.08816 C86.8483084,384.210921 80.2533961,382.557776 73.0643475,371.598034 L71.6978341,369.455067 Z M92.136121,370.679619 L93.3243935,369.761205 C98.7310334,366.026321 100.15696,362.96494 95.2850431,355.372717 L94.5720796,354.148165 C89.7001624,346.555941 86.1947585,346.923306 80.9663596,350.719418 L79.7186734,351.637833 C74.4902745,355.372717 72.8861066,358.434097 77.8174375,366.026321 L78.4709873,367.250873 C83.4023182,374.659414 86.7294812,374.475731 92.136121,370.679619" id="Shape" fill="#FFC20E" fill-rule="nonzero"></path>
            <path d="M102.498781,406.460506 C93.0490883,397.671158 92.2170399,390.795137 99.8837719,382.543913 L101.607301,380.630585 C109.333465,372.37936 116.108716,372.678318 125.380113,381.467666 L127.281938,383.26141 C136.731631,392.050758 137.623112,398.866988 129.896948,407.178004 L128.173419,409.091331 C120.506687,417.342556 113.672003,416.983807 104.400606,408.194459 L102.498781,406.460506 Z M122.586808,403.112183 L123.656584,402.035936 C127.995123,397.312409 128.886603,393.964086 122.408512,387.984938 L121.338735,387.088065 C114.920076,381.108917 111.591882,382.185164 107.193912,387.088065 L106.183567,388.104521 C101.785597,392.887839 100.953548,396.176371 107.372208,402.155519 L108.441984,403.052392 C114.920076,409.03154 118.24827,407.955293 122.586808,403.052392" id="Shape" fill="#FFC20E" fill-rule="nonzero"></path>
            <polygon id="Path" fill="#FFC20E" fill-rule="nonzero" points="135.097493 430.141314 149.015595 408.145934 137.807212 401.487873 141.625452 395.543175 171.309192 413.198927 167.490952 419.143624 156.282569 412.54501 142.364467 434.54039"></polygon>
            <path d="M181.732008,453.593417 L160.167131,445.42018 L171.460158,413.649025 L192.304203,421.392092 C200.954182,424.649096 203.236815,427.9061 201.314598,433.682674 L201.314598,434.23575 C199.752796,438.598907 197.289955,440.381041 193.385451,439.274889 L193.385451,439.643606 C195.178206,440.161188 196.634804,441.500357 197.328649,443.268908 C198.022494,445.037459 197.875065,447.03525 196.929539,448.677184 L196.569123,449.598978 C194.646906,455.744269 190.562194,456.850421 182.092423,453.777776 M173.082029,435.341903 L170.619188,442.408987 L182.633047,446.89505 C187.198313,448.492826 188.639976,448.308467 189.661154,445.604539 L189.661154,445.604539 C190.742402,442.716252 189.661154,441.671552 185.095888,440.012324 L173.082029,435.341903 Z M175.004247,429.565329 L187.378521,434.051391 C191.102818,435.526261 192.484411,435.341903 193.385451,432.822333 L193.385451,432.822333 C194.28649,430.302764 193.385451,429.196612 189.300739,427.598836 L177.28688,423.05132 L175.004247,429.565329 Z" id="Shape" fill="#FFC20E" fill-rule="nonzero"></path>
            <path d="M234.617765,463.926198 L232.159161,456.217767 L213.809579,453.528779 L209.432064,460.400636 L200.557103,459.504307 L220.285902,428.969359 L232.638889,430.582752 L243.732591,465.181058 L234.617765,463.926198 Z M217.707366,447.553251 L229.700557,449.106888 L225.80277,435.602195 L225.442974,435.602195 L217.707366,447.553251 Z" id="Shape" fill="#FFC20E" fill-rule="nonzero"></path>
            <polygon id="Path" fill="#FFC20E" fill-rule="nonzero" points="251.55574 465.181058 249.303621 432.293042 257.304569 431.754875 259.023292 457.766306 279.410893 456.390989 279.94429 463.207778"></polygon>
            <polygon id="Path" fill="#FFC20E" fill-rule="nonzero" points="287.950897 462.395543 279.94429 429.541692 287.950897 427.576602 294.198476 453.552637 314.518274 448.517094 316.155989 455.3335"></polygon>
            <polygon id="Path" fill="#FFC20E" fill-rule="nonzero" points="345.255734 441.504178 333.402477 418.430326 322.082617 424.379053 318.941504 418.250061 348.693178 402.506964 351.834291 408.696044 340.514431 414.70486 352.367688 437.838801"></polygon>
            <polygon id="Path" fill="#FFC20E" fill-rule="nonzero" points="371.320006 428.969359 350.97493 402.460477 375.019111 383.008357 379.01653 388.224225 361.356289 402.644566 365.532697 408.044524 383.252602 393.624182 387.250021 398.84005 369.58978 413.321755 373.766188 418.721713 391.486093 404.301371 395.543175 409.517239"></polygon>
            <path d="M422.933441,377.180714 L414.88555,374.933888 L402.691776,389.386442 L406.288939,396.916344 L400.192052,403.899721 L384.401114,370.318787 L392.936756,360.724234 L428.969359,370.015162 L422.933441,377.180714 Z M399.826239,382.888865 L407.87413,373.233588 L393.729352,369.468637 L393.729352,369.468637 L399.826239,382.888865 Z" id="Shape" fill="#FFC20E" fill-rule="nonzero"></path>
            <polygon id="Path" fill="#FFC20E" fill-rule="nonzero" points="450.696379 324.908825 427.059292 313.6921 426.880223 314.05393 445.443693 336.246159 442.101074 343.301841 413.509749 343.120926 413.33068 343.482756 437.027457 354.639175 433.684839 362.116992 403.899721 348.126238 409.868683 335.16067 434.580183 335.341585 434.759252 334.979755 418.583366 315.863079 424.25388 303.62117 454.038997 317.611923"></polygon>
            <polygon id="Path" fill="#FFC20E" fill-rule="nonzero" points="123.955432 200.557103 144.558245 217.841191 167.940323 321.727019 224.613163 321.727019 252.345396 237.361332 280.923491 321.727019 333.669109 321.727019 366.295265 200.738405 307.870279 200.738405 322.793724 213.187783 306.480646 285.466695 304.849338 285.466695 277.177525 200.738405 227.090334 200.738405 201.533179 285.466695 199.901872 285.466695 180.205341 200.738405"></polygon>
            <polygon id="Path" fill="#FFC20E" fill-rule="nonzero" points="445.316471 173.516556 447.146372 166.781021 454.038997 181.575142 424.455605 194.986072 417.136002 179.35001 429.457333 151.926762 429.274343 151.56593 408.53547 161.007706 403.899721 151.08482 430.25029 139.117219 431.653214 133.704735 440.802716 153.309952 428.420389 180.7332 428.603379 181.154171"></polygon>
            <path d="M415.013838,138.514105 C406.43581,146.685837 399.597382,144.612412 388.739878,133.086611 L385.320664,129.427627 C374.46316,117.718876 373.023491,110.705822 381.601519,102.473107 L383.041188,101.070497 C391.619216,92.8377815 398.457644,94.9721891 409.315148,106.437007 L412.674376,110.095992 C423.591866,121.804742 425.031535,128.878779 416.453507,137.111494 L415.013838,138.514105 Z M389.879616,110.766806 C385.620595,114.852672 385.200691,117.474944 392.279064,125.158811 L393.358816,126.256507 C400.437189,133.940374 403.076582,133.696442 407.335603,129.610576 L408.115424,128.878779 C412.434431,124.670947 412.854334,122.048674 405.715975,114.364807 L404.69621,113.267112 C397.557851,105.583244 394.978444,105.88816 390.659437,110.035009 L389.879616,110.766806 Z" id="Shape" fill="#FFC20E"></path>
            <path d="M341.026787,74.2412877 C337.383981,84.8828293 329.612659,85.4909174 315.70928,80.6870215 L311.034345,79.0451836 C295.855983,73.815626 291.302474,68.2820243 295.188135,57.0932034 L296.15955,54.9040862 C299.984497,43.7760741 307.027257,42.195045 322.144905,47.4854115 L326.880554,49.1272493 C339.812518,53.5662924 344.2446,58.0053355 344.001746,65.9104808 L331.859057,61.7146729 C330.826928,59.5255558 329.187665,58.491806 322.327046,56.1202624 L320.444929,55.5121743 C310.973631,52.2284986 308.787947,53.6271012 306.845117,59.2215117 L306.480836,60.4984967 C304.538006,66.0929072 305.387994,68.5252596 314.920005,71.8089353 L316.559268,72.3562146 C324.330589,75.092611 327.851969,75.3966551 329.369806,72.3562146 L319.169946,68.8293036 L313.098602,58.8566589 L342.908904,69.1941565 L341.026787,74.2412877 Z" id="Path" fill="#FFC20E" fill-rule="nonzero"></path>
            <path d="M226.232891,37.6688609 C227.651011,37.4420018 229.098109,37.8200614 230.235424,38.7145371 C231.372739,39.6090128 232.100422,40.9413749 232.248124,42.399721 L235.376045,69.6789664 L224.007255,71.0306407 L220.458268,40.8022877 L217.270195,38.7133365 L226.232891,37.6688609 Z" id="Path" fill="#FFC20E" fill-rule="nonzero"></path>
            <polygon id="Path" fill="#FFC20E" fill-rule="nonzero" points="48.1264548 178.6164 70.8430318 183.293449 71.024281 182.933676 53.382684 167.28355 59.0618283 155.231154 82.6846517 157.929452 82.865901 157.569679 67.2180461 145.577245 62.5055647 147.795845 69.0909553 133.704735 94.7075209 155.051268 88.7262945 167.763248 65.1034711 165.244836 82.442986 181.314698 76.0388446 194.986072 48.2472876 189.10978 41.7827298 192.16785"></polygon>
            <path d="M98.2142001,100.278552 L135.097493,108.019934 L126.226058,117.696662 L118.934468,116.124194 L103.865182,132.695591 L106.113423,139.650739 L97.5458043,149.02507 L87.519868,117.031387 L82.1727019,117.757142 L98.2142001,100.278552 Z M110.36685,114.249328 L97.4242778,111.406789 L97.4242778,111.709187 L101.495416,124.349413 L110.36685,114.249328 Z" id="Shape" fill="#FFC20E"></path>
            <path d="M166.674574,75.8870078 C171.329557,83.3493126 167.158208,88.6451418 154.583708,96.4685258 L151.802809,98.2137422 C142.613752,103.870651 134.331509,107.421263 128.527893,101.102376 L138.986492,94.6029496 C140.800122,95.8065471 143.460112,94.6029496 149.989179,90.6912576 C156.518247,86.7795656 158.573694,84.6732699 157.425062,82.627154 L157.425062,82.627154 C156.639155,81.3633766 155.550977,81.2430169 152.770078,82.627154 L139.591035,90.0894588 C130.039252,95.5056478 126.049266,95.1445685 122.845187,90.0894588 L122.845187,89.6681997 C118.55293,82.8076937 122.482461,77.6322242 134.936052,69.9292 L136.931045,68.6654225 C145.999194,63.1288739 154.160528,59.6986209 160.266415,66.2582275 L149.44509,72.8178341 C147.571006,71.4336969 144.850562,72.3363951 139.046946,75.9471877 C132.276062,80.0394193 131.248338,81.664276 132.336516,83.4094925 L132.336516,83.4094925 C133.122422,84.6732699 134.089691,84.8538095 136.991499,83.4094925 L149.868271,76.0073676 C159.540963,70.5911786 163.289131,70.892078 166.432756,76.0073676 L166.674574,75.8870078 Z" id="Path" fill="#FFC20E" fill-rule="nonzero"></path>
            <polygon id="Path" fill="#FFC20E" fill-rule="nonzero" points="199.204883 46.855142 192.333752 44.1558539 208.751498 38.9972145 218.662953 69.5291617 207.656982 73.0082441 204.008594 61.6712342 181.571007 68.7493674 185.219396 80.0863772 174.213425 83.5654596 165.457294 56.4526106 160.167131 54.3531644 175.368748 49.55443 179.017136 60.7714715 201.393916 53.6933384"></polygon>
            <polygon id="Path" fill="#FFC20E" fill-rule="nonzero" points="278.494491 42.5959507 273.13578 37.4315305 289.693593 38.6466882 287.405605 71.0306407 270.185479 69.7547251 252.00199 45.6338449 251.580519 45.6338449 250.015053 68.2965359 239.117001 67.5674413 241.164149 39.0719934 236.768802 34.8189415 258.625115 36.3986465 276.808604 60.5802845 277.230076 60.5802845"></polygon>
            <polygon id="Path" fill="#FFC20E" fill-rule="nonzero" points="371.304158 85.0229967 383.591469 93.6467578 388.579387 86.5412645 354.515555 62.6740947 349.588465 69.779588 361.875776 78.4033491 348.189415 97.8371769 357.617797 104.456825"></polygon>
            <path d="M54.954927,240.947075 C59.1903949,240.92338 63.0210019,243.459563 64.6528876,247.368106 C66.2847733,251.276649 65.3948556,255.783734 62.39988,258.77871 C59.4049044,261.773686 54.8978186,262.663603 50.9892758,261.031718 C47.080733,259.399832 44.5445497,255.569225 44.5682451,251.333757 C44.5682451,245.597443 49.2186132,240.947075 54.954927,240.947075" id="Path" fill="#FFC20E" fill-rule="nonzero"></path>
            <path d="M446.024744,240.953111 C450.284194,240.808696 454.204219,243.266492 455.929782,247.16342 C457.655345,251.060348 456.840348,255.614795 453.870463,258.671503 C450.900578,261.728211 446.371481,262.67409 442.426434,261.061532 C438.481386,259.448974 435.911652,255.601412 435.933148,251.339591 C435.933148,245.603297 440.583492,240.953111 446.319816,240.953111" id="Path" fill="#FFC20E" fill-rule="nonzero"></path>
        </g>
    </g>
</svg>